<?xml version="1.0" encoding="UTF-8" ?>
<!DOCTYPE svg PUBLIC "-//W3C//DTD SVG 1.1//EN" "http://www.w3.org/Graphics/SVG/1.1/DTD/svg11.dtd">
<svg width="737pt" height="426pt" viewBox="0 0 737 426" version="1.1" xmlns="http://www.w3.org/2000/svg">
<g id="#ffffffff">
</g>
<g id="#000000ff">
<path fill="#000000" opacity="1.00" d=" M 457.25 1.03 C 459.92 1.19 461.05 3.85 461.63 6.11 C 476.90 82.15 492.13 158.19 507.45 234.21 C 580.31 241.67 653.15 249.42 726.01 256.94 C 729.06 257.19 732.11 257.31 735.17 257.52 C 725.80 258.30 716.39 257.90 707.00 258.00 C 625.10 257.99 543.20 258.02 461.29 257.99 C 459.78 256.28 458.35 254.49 456.65 252.96 C 455.18 252.57 453.63 252.64 452.14 252.76 C 450.23 254.07 449.11 256.22 447.69 258.00 C 427.37 258.00 407.04 258.00 386.72 258.00 C 390.02 254.80 393.54 251.83 396.76 248.54 C 397.35 236.73 396.79 224.84 396.99 213.01 C 360.04 228.46 323.02 243.75 286.11 259.29 C 274.45 314.59 262.74 369.87 251.08 425.16 C 250.32 425.01 248.79 424.70 248.03 424.55 C 248.39 401.04 248.27 377.52 248.28 354.00 C 248.14 321.33 248.57 288.66 248.06 256.00 C 218.50 255.98 188.93 256.04 159.36 255.97 C 157.57 253.58 155.73 251.23 153.77 248.98 C 153.59 275.65 153.80 302.33 153.72 329.00 C 153.55 338.38 154.34 347.75 153.90 357.13 C 128.42 296.70 103.55 236.00 77.90 175.64 C 77.40 202.06 77.97 228.50 77.60 254.93 C 52.14 255.12 26.67 254.93 1.20 255.00 C 5.82 247.68 10.37 240.32 14.97 232.99 C 19.95 233.00 24.94 233.11 29.91 232.76 C 30.02 200.89 30.12 169.01 29.86 137.15 C 23.44 136.85 17.02 137.08 10.60 136.98 C 14.55 130.01 18.42 123.00 22.31 116.00 C 42.43 116.03 62.55 115.93 82.66 116.05 C 89.84 129.70 97.00 143.35 104.24 156.97 C 119.35 126.51 134.67 96.15 149.81 65.70 C 150.72 63.86 151.70 62.05 152.83 60.33 C 153.23 94.22 152.89 128.12 153.00 162.01 C 185.00 162.00 217.00 162.00 249.01 162.00 C 248.93 139.74 249.15 117.46 248.90 95.21 C 242.58 87.66 235.23 80.99 228.28 74.02 C 276.20 73.97 324.13 74.03 372.06 73.98 C 377.67 73.83 383.58 76.86 385.79 82.20 C 385.65 104.07 385.70 125.96 385.76 147.83 C 385.17 151.95 381.59 155.36 377.90 156.72 C 354.55 156.71 331.18 156.62 307.82 156.72 C 300.89 188.76 294.41 220.90 287.34 252.92 C 310.57 229.95 333.53 206.71 356.71 183.69 C 362.29 178.31 367.42 172.42 373.31 167.38 C 401.20 167.16 429.10 167.34 457.00 167.29 C 457.00 132.53 457.00 97.76 456.99 63.00 C 457.17 42.34 456.65 21.67 457.25 1.03 M 153.69 168.41 C 153.79 193.18 153.62 217.95 153.75 242.72 C 158.56 238.13 163.51 233.65 168.04 228.78 C 168.64 213.87 168.08 198.88 168.31 183.94 C 168.13 182.56 168.67 180.74 167.42 179.75 C 163.03 175.75 158.30 172.14 153.69 168.41 M 219.29 196.18 C 225.14 200.42 231.21 204.35 237.10 208.54 C 230.99 214.21 223.83 218.58 217.38 223.83 C 227.58 233.66 237.27 244.01 247.56 253.74 C 248.52 251.27 248.16 248.60 248.21 246.02 C 248.39 220.01 248.27 194.01 248.29 168.00 C 238.62 177.39 228.98 186.82 219.29 196.18 M 441.73 181.98 C 441.76 199.62 441.55 217.27 441.83 234.91 C 443.96 238.70 447.88 241.06 450.81 244.20 C 452.99 242.28 457.61 241.72 457.01 238.03 C 457.00 216.38 456.98 194.73 457.01 173.08 C 451.91 176.03 446.84 179.03 441.73 181.98 Z" />
</g>
</svg>
